# AST/ASF file generated using VICON BodyLanguage
# -----------------------------------------------
:version 1.10
:name VICON
:units
  mass 1.0
  length 0.45
  angle deg
:documentation
   .ast/.asf automatically generated from VICON data using
   VICON BodyBuilder and BodyLanguage model FoxedUp or BRILLIANT.MOD
:root
   order TX TY TZ RX RY RZ
   axis XYZ
   position 0 0 0  
   orientation 0 0 0 
:bonedata
  begin
     id 1 
     name lhipjoint
     direction 0.661853 -0.702389 0.261917 
     length 2.64193 
     axis 0 0 0  XYZ
  end
  begin
     id 2 
     name lfemur
     direction 0.34202 -0.939693 0  
     length 7.01722  
     axis 0 0 20  XYZ
    dof rx ry rz
    limits (-160.0 20.0)
           (-70.0 70.0)
           (-60.0 70.0)
  end
  begin
     id 3 
     name ltibia
     direction 0.34202 -0.939693 0   
     length 8.25008   
     axis 0 0 20   XYZ
    dof rx
    limits (-10.0 170.0)
  end
  begin
     id 4 
     name lfoot
     direction 0.0709916 -0.195048 0.978221   
     length 2.31941   
     axis -90 7.62852e-016 20   XYZ
    dof rx rz
    limits (-45.0 90.0)
           (-70.0 20.0)
  end
  begin
     id 5 
     name ltoes
     direction 1.53586e-011 -4.22017e-011 1   
     length 1.16486   
     axis -90 7.62852e-016 20   XYZ
    dof rx
    limits (-90.0 20.0)
  end
  begin
     id 6 
     name rhipjoint
     direction -0.638185 -0.721362 0.268992   
     length 2.57244  
     axis 0 0 0  XYZ 
  end
  begin
     id 7 
     name rfemur
     direction -0.34202 -0.939693 0   
     length 7.07017   
     axis 0 0 -20   XYZ
    dof rx ry rz
    limits (-160.0 20.0)
           (-70.0 70.0)
           (-70.0 60.0)
  end
  begin
     id 8 
     name rtibia
     direction -0.34202 -0.939693 0   
     length 8.20386   
     axis 0 0 -20   XYZ
    dof rx
    limits (-10.0 170.0)
 end
 begin
     id 9 
     name rfoot
     direction -0.0822429 -0.225961 0.970658   
     length 2.32215  
     axis -90 -7.62852e-016 -20   XYZ
    dof rx rz
    limits (-45.0 90.0)
           (-20.0 70.0)
  end
  begin
     id 10 
     name rtoes
     direction -1.53597e-011 -4.21689e-011 1   
     length 1.16333   
     axis -90 -7.62852e-016 -20   XYZ
    dof rx
    limits (-90.0 20.0)
  end
  begin
     id 11 
     name lowerback
     direction -0.0131557 0.998589 -0.0514484   
     length 2.14993   
     axis 0 0 0   XYZ
    dof rx ry rz
    limits (-20.0 45.0)
           (-30.0 30.0)
           (-30.0 30.0)
  end
  begin
     id 12 
     name upperback
     direction -0.000776481 0.999993 0.00352685   
     length 2.15301   
     axis 0 0 0   XYZ
    dof rx ry rz
    limits (-20.0 45.0)
           (-30.0 30.0)
           (-30.0 30.0)
  end
  begin
     id 13 
     name thorax
     direction 0.00438186 0.999609 0.0276143   
     length 2.15424   
     axis 0 0 0   XYZ
    dof rx ry rz
    limits (-20.0 45.0)
           (-30.0 30.0)
           (-30.0 30.0)
  end
  begin
     id 14 
     name lowerneck
     direction -0.0488006 0.998094 0.0377807   
     length 1.90481   
     axis 0 0 0   XYZ
    dof rx ry rz
    limits (-20.0 45.0)
           (-30.0 30.0)
           (-30.0 30.0)
  end
  begin
     id 15 
     name upperneck
     direction 0.0443769 0.990702 -0.12861   
     length 1.91305   
     axis 0 0 0   XYZ
    dof rx ry rz
    limits (-20.0 45.0)
           (-30.0 30.0)
           (-30.0 30.0)
  end
  begin
     id 16
     name head
     direction 0.0165599 0.998647 -0.0492982  
     length 1.92369  
     axis 0 0 0   XYZ
    dof rx ry rz
    limits (-20.0 45.0)
           (-30.0 30.0)
           (-30.0 30.0)
  end
  begin
     id 17 
     name lclavicle
     direction 0.911936 0.410197 -0.0105506  
     length 3.52622  
     axis 0 0 0   XYZ
    dof ry rz
    limits (-20.0 10.0)
           (0.0 20.0)
  end
  begin
     id 18 
     name lhumerus
     direction 1 -4.48974e-011 -2.48591e-028   
     length 5.47651   
     axis 180 -30 -90   XYZ
    dof rx ry rz
    limits (-60.0 90.0)
           (-90.0 90.0)
           (-90.0 90.0)
  end
  begin
     id 19
     name lradius
     direction 1 -4.48938e-011 -4.40099e-027   
     length 3.09058   
     axis 180 -30 -90   XYZ
    dof rx
    limits (-10.0 170.0)
  end
  begin
     id 20
     name lwrist
     direction 1 -4.49042e-011 -2.99852e-027   
     length 1.54529   
     axis 1.95339e-015 90 90   XYZ
    dof ry
    limits (-180.0 0.0)
 end
  begin
     id 21 
     name lhand
     direction 1 -4.48815e-011 -5.98193e-027   
     length 0.771611   
     axis 3.82337e-015 90 90   XYZ
    dof rx rz
    limits (-90.0 90.0)
           (-45.0 45.0)
  end
  begin
     id 22 
     name lfingers
     direction 1 -4.49034e-011 -1.1993e-026   
     length 0.622093   
     axis 7.64668e-015 90 90   XYZ
    dof rx
    limits (0.0 90.0)
  end
  begin
     id 23
     name lthumb
     direction 0.707107 -6.34867e-011 0.707107   
     length 0.893204   
     axis -90 45 -1.62303e-014   XYZ
    dof rx rz
    limits (-45.0 45.0)
           (-45.0 45.0)
  end
  begin
     id 24 
     name rclavicle
     direction -0.93442 0.355634 -0.0195692   
     length 3.62463  
     axis 0 0 0   XYZ 
    dof ry rz
    limits (-10.0 20.0)
           (-20.0 0.0)
  end
  begin
     id 25 
     name rhumerus
     direction -1 -4.48957e-011 -1.19147e-027  
     length 5.14182   
     axis 180 30 90   XYZ
    dof rx ry rz
    limits (-90.0 60.0)
           (-90.0 90.0)
           (-90.0 90.0)
  end
  begin
     id 26 
     name rradius
     direction -1 -4.48952e-011 -3.81062e-027   
     length 3.35565   
     axis 180 30 90   XYZ
    dof rx
    limits (-10.0 170.0)
  end
  begin
     id 27 
     name rwrist
     direction -1 -4.48973e-011 -2.99621e-027   
     length 1.67782   
     axis 1.95339e-015 -90 -90   XYZ
    dof ry
    limits (-180.0 0.0)
  end
  begin
     id 28
     name rhand
     direction -1 -4.48895e-011 -5.98727e-027   
     length 0.801042   
     axis 3.82337e-015 -90 -90   XYZ
    dof rx rz
    limits (-90.0 90.0)
           (-45.0 45.0)
  end
  begin
     id 29
     name rfingers
     direction -1 -4.49065e-011 -1.19972e-026   
     length 0.645821   
     axis 7.64668e-015 -90 -90   XYZ
    dof rx
    limits (0.0 90.0)
  end
  begin
     id 30
     name rthumb
     direction -0.707107 -6.34957e-011 0.707107   
     length 0.927273   
     axis -90 -45 1.62303e-014   XYZ
    dof rx rz
    limits (-45.0 45.0)
           (-45.0 45.0)
  end
:hierarchy
  begin
    root lhipjoint rhipjoint lowerback
    lhipjoint lfemur
    lfemur ltibia
    ltibia lfoot
    lfoot ltoes
    rhipjoint rfemur
    rfemur rtibia
    rtibia rfoot
    rfoot rtoes
    lowerback upperback
    upperback thorax
    thorax lowerneck lclavicle rclavicle
    lowerneck upperneck
    upperneck head
    lclavicle lhumerus
    lhumerus lradius
    lradius lwrist
    lwrist lhand lthumb
    lhand lfingers
    rclavicle rhumerus
    rhumerus rradius
    rradius rwrist
    rwrist rhand rthumb
    rhand rfingers
  end

#!OML:ASF E:\Style4\Style4.ASF
:FULLY-SPECIFIED
:DEGREES
317
root 0.0549048 16.5973 -2.41836 3.89659 0.0595925 2.84639
lowerback 19.1062 2.28718 -0.698626
upperback 9.97708 2.86789 0.378775
thorax -0.00684607 1.39938 0.262153
lowerneck 5.91115 -5.24158 -5.39004
upperneck -10.8717 -7.02065 5.73453
head -3.80489 -3.57868 2.95413
rclavicle -4.25399e-014 1.19271e-014
rhumerus 20.1493 -0.467847 -72.8091
rradius 108.232
rwrist 21.6385
rhand 29.0673 -7.03275
rfingers 7.12502
rthumb 52.8665 -26.6093
lclavicle -4.25399e-014 1.19271e-014
lhumerus 23.9938 -15.2077 66.6126
lradius 113.225
lwrist -10.8001
lhand 14.0524 42.8392
lfingers 7.12502
lthumb 38.9589 68.3709
rfemur -37.8989 -2.00239 16.0786
rtibia 57.8212
rfoot -22.3704 -10.6488
rtoes -13.0367
lfemur -37.0986 1.1376 -21.6989
ltibia 55.7521
lfoot -21.6315 5.55363
ltoes -17.0156
318
root 0.0545431 16.5977 -2.41868 3.84988 0.08549 2.87359
lowerback 19.1 2.26105 -0.745152
upperback 10.0149 2.82705 0.386796
thorax 0.0350407 1.37704 0.305619
lowerneck 5.91047 -5.22271 -5.44001
upperneck -10.9877 -6.99701 5.74858
head -3.83888 -3.56527 2.96862
rclavicle -2.82274e-014 -7.95139e-016
rhumerus 20.1937 -0.411964 -72.8052
rradius 108.068
rwrist 21.8919
rhand 29.378 -7.0946
rfingers 7.12502
rthumb 53.1469 -26.4935
lclavicle -2.82274e-014 -7.95139e-016
lhumerus 23.9594 -15.1587 66.6567
lradius 113.197
lwrist -11.0681
lhand 14.0056 42.8274
lfingers 7.12502
lthumb 38.9148 68.3717
rfemur -37.8097 -2.05273 16.0524
rtibia 57.8221
rfoot -22.4804 -10.5418
rtoes -12.7856
lfemur -37.0378 1.07964 -21.7273
ltibia 55.7302
lfoot -21.6336 5.61432
ltoes -17.0261
319
root 0.0539283 16.6 -2.41873 3.83618 0.106182 2.84534
lowerback 19.0819 2.2376 -0.730139
upperback 10.0467 2.79957 0.393976
thorax 0.0791679 1.36362 0.311356
lowerneck 5.88202 -5.21955 -5.39878
upperneck -11.1003 -6.99083 5.701
head -3.872 -3.56054 2.9496
rclavicle 1.11319e-014 -9.54166e-015
rhumerus 20.1995 -0.407917 -72.824
rradius 108.134
rwrist 22.1821
rhand 29.6255 -7.07621
rfingers 7.12502
rthumb 53.37 -26.3315
lclavicle 1.11319e-014 -9.54166e-015
lhumerus 23.9283 -15.0977 66.6949
lradius 113.309
lwrist -11.1651
lhand 13.9924 42.8718
lfingers 7.12502
lthumb 38.9024 68.4197
rfemur -37.7343 -2.07342 16.0894
rtibia 57.785
rfoot -22.5476 -10.4395
rtoes -12.3663
lfemur -37.0109 1.04343 -21.6904
ltibia 55.7014
lfoot -21.6112 5.53379
ltoes -16.4429
320
root 0.0530369 16.6043 -2.4177 3.82208 0.129339 2.79158
lowerback 19.0902 2.23514 -0.664037
upperback 10.0567 2.80724 0.405981
thorax 0.0879325 1.36962 0.285345
lowerneck 5.89798 -5.23662 -5.37039
upperneck -11.2007 -7.01172 5.68853
head -3.9054 -3.57108 2.94541
rclavicle 1.63003e-014 0
rhumerus 20.1113 -0.452455 -72.7665
rradius 108.386
rwrist 22.3152
rhand 29.5942 -7.16907
rfingers 7.12502
rthumb 53.3417 -26.4426
lclavicle 1.63003e-014 0
lhumerus 23.8685 -15.113 66.7692
lradius 113.562
lwrist -11.1612
lhand 13.9707 42.819
lfingers 7.12502
lthumb 38.8819 68.3727
rfemur -37.6933 -2.04179 16.1429
rtibia 57.6928
rfoot -22.4518 -10.4977
rtoes -12.4444
lfemur -36.966 0.980927 -21.6206
ltibia 55.6523
lfoot -21.6472 5.58204
ltoes -16.6175
321
root 0.0516338 16.6101 -2.41762 3.81769 0.163493 2.66269
lowerback 19.1201 2.21727 -0.523522
upperback 10.0497 2.80696 0.435388
thorax 0.0700978 1.37396 0.236041
lowerneck 5.94477 -5.24021 -5.3989
upperneck -11.2922 -7.0136 5.74914
head -3.93731 -3.57426 2.9725
rclavicle -3.81667e-014 8.74653e-015
rhumerus 19.9854 -0.470066 -72.7286
rradius 108.815
rwrist 22.3
rhand 29.3516 -7.22841
rfingers 7.12502
rthumb 53.1231 -26.6425
lclavicle -3.81667e-014 8.74653e-015
lhumerus 23.7932 -15.0785 66.8498
lradius 113.968
lwrist -11.0251
lhand 14.0355 42.6657
lfingers 7.12502
lthumb 38.943 68.2021
rfemur -37.636 -1.99229 16.2855
rtibia 57.5705
rfoot -22.3731 -10.579
rtoes -12.5294
lfemur -36.9448 0.910513 -21.4602
ltibia 55.6048
lfoot -21.6506 5.63737
ltoes -16.6444
322
root 0.0496761 16.615 -2.41761 3.84047 0.193038 2.61575
lowerback 19.136 2.21821 -0.471121
upperback 10.0411 2.81667 0.438607
thorax 0.0549463 1.38073 0.207335
lowerneck 5.96729 -5.25587 -5.36639
upperneck -11.3482 -7.02914 5.77155
head -3.95736 -3.58454 2.97706
rclavicle 8.34896e-015 -1.43125e-014
rhumerus 19.8252 -0.486313 -72.7088
rradius 109.383
rwrist 22.2273
rhand 28.9259 -7.20423
rfingers 7.12502
rthumb 52.7387 -26.8606
lclavicle 8.34896e-015 -1.43125e-014
lhumerus 23.7643 -15.0637 66.8969
lradius 114.45
lwrist -10.7079
lhand 14.048 42.5862
lfingers 7.12502
lthumb 38.9548 68.1192
rfemur -37.5757 -2.00306 16.357
rtibia 57.4946
rfoot -22.3619 -10.5859
rtoes -12.4665
lfemur -36.9364 0.890028 -21.3966
ltibia 55.5464
lfoot -21.5828 5.53341
ltoes -16.1619
323
root 0.0466664 16.6192 -2.41749 3.85748 0.199446 2.62079
lowerback 19.1543 2.23574 -0.498393
upperback 10.0369 2.8348 0.435215
thorax 0.0398628 1.38886 0.214924
lowerneck 5.92813 -5.26628 -5.35045
upperneck -11.3048 -7.03759 5.79759
head -3.9367 -3.59069 2.98017
rclavicle -1.27222e-014 -7.95139e-016
rhumerus 19.6477 -0.452455 -72.6992
rradius 110.062
rwrist 22.0246
rhand 28.5062 -7.30951
rfingers 7.12502
rthumb 52.3591 -27.1994
lclavicle -1.27222e-014 -7.95139e-016
lhumerus 23.7226 -15.0675 66.9509
lradius 115.005
lwrist -10.3181
lhand 14.0446 42.56
lfingers 7.12502
lthumb 38.9516 68.0939
rfemur -37.5307 -2.00566 16.3685
rtibia 57.4393
rfoot -22.3963 -10.5111
rtoes -12.0072
lfemur -36.9145 0.913946 -21.3923
ltibia 55.4785
lfoot -21.5188 5.4842
ltoes -16.0091
324
root 0.0449499 16.6245 -2.41696 3.93666 0.186376 2.59565
lowerback 19.096 2.2471 -0.470767
upperback 10.0319 2.85416 0.426336
thorax 0.0656715 1.39975 0.18851
lowerneck 5.89034 -5.28784 -5.32577
upperneck -11.2957 -7.06127 5.81104
head -3.92662 -3.60395 2.97964
rclavicle 1.63003e-014 -1.11319e-014
rhumerus 19.4627 -0.438979 -72.6693
rradius 110.814
rwrist 21.7865
rhand 28.2073 -7.25441
rfingers 7.12502
rthumb 52.0883 -27.3075
lclavicle 1.63003e-014 -1.11319e-014
lhumerus 23.6941 -15.0227 66.9996
lradius 115.678
lwrist -10.0676
lhand 14.0874 42.522
lfingers 7.12502
lthumb 38.9919 68.0443
rfemur -37.578 -1.97152 16.4048
rtibia 57.3696
rfoot -22.3796 -10.4871
rtoes -11.7635
lfemur -36.9605 0.951459 -21.3576
ltibia 55.4029
lfoot -21.4706 5.51129
ltoes -16.0304
325
root 0.0423253 16.6323 -2.41547 4.02354 0.23257 2.54326
lowerback 19.0745 2.23291 -0.43596
upperback 10.0068 2.842 0.439598
thorax 0.0504229 1.39468 0.185304
lowerneck 5.8642 -5.28978 -5.34788
upperneck -11.2856 -7.06115 5.84771
head -3.91689 -3.60487 2.99306
rclavicle -3.97569e-015 2.06736e-014
rhumerus 19.271 -0.392297 -72.6492
rradius 111.618
rwrist 21.599
rhand 27.9365 -7.20899
rfingers 7.12502
rthumb 51.8425 -27.4077
lclavicle -3.97569e-015 2.06736e-014
lhumerus 23.6189 -14.9385 67.0694
lradius 116.374
lwrist -10.1245
lhand 14.0132 42.3629
lfingers 7.12502
lthumb 38.922 67.9053
rfemur -37.6026 -1.97057 16.4722
rtibia 57.2736
rfoot -22.405 -10.4688
rtoes -11.6128
lfemur -37.0083 0.952425 -21.2883
ltibia 55.3073
lfoot -21.4289 5.48044
ltoes -16.0484
326
root 0.0400441 16.6409 -2.41505 4.09395 0.284518 2.46452
lowerback 19.1247 2.21782 -0.367269
upperback 9.94691 2.83393 0.469545
thorax -0.0380792 1.39239 0.17622
lowerneck 5.94049 -5.27925 -5.39612
upperneck -11.2729 -7.0561 5.84156
head -3.92456 -3.60073 3.00093
rclavicle -8.74653e-015 -7.95139e-016
rhumerus 19.0718 -0.316001 -72.6008
rradius 112.422
rwrist 21.5146
rhand 27.7512 -7.223
rfingers 7.12502
rthumb 51.6743 -27.5202
lclavicle -8.74653e-015 -7.95139e-016
lhumerus 23.4744 -14.9618 67.144
lradius 117.079
lwrist -10.1219
lhand 13.8735 42.1958
lfingers 7.12502
lthumb 38.7903 67.7756
rfemur -37.5978 -1.98637 16.5743
rtibia 57.1436
rfoot -22.3338 -10.5669
rtoes -11.7742
lfemur -37.0368 0.953704 -21.1903
ltibia 55.211
lfoot -21.4328 5.42118
ltoes -16.2437
327
root 0.037763 16.65 -2.41431 4.19165 0.294032 2.46468
lowerback 19.1215 2.23306 -0.382432
upperback 9.89924 2.85142 0.47349
thorax -0.0889644 1.40043 0.184487
lowerneck 5.92776 -5.28115 -5.4119
upperneck -11.174 -7.06351 5.82085
head -3.89236 -3.60287 2.99422
rclavicle -1.23246e-014 -1.59028e-015
rhumerus 18.9431 -0.231972 -72.5096
rradius 113.211
rwrist 21.3678
rhand 27.6885 -7.27967
rfingers 7.12502
rthumb 51.6173 -27.6099
lclavicle -1.23246e-014 -1.59028e-015
lhumerus 23.3466 -15.0376 67.157
lradius 117.82
lwrist -9.91282
lhand 13.8364 42.1152
lfingers 7.12502
lthumb 38.7553 67.7049
rfemur -37.6297 -1.97694 16.5806
rtibia 57.0063
rfoot -22.2379 -10.6233
rtoes -11.7688
lfemur -37.0734 0.964352 -21.1865
ltibia 55.1005
lfoot -21.3447 5.32859
ltoes -15.955
328
root 0.0381155 16.6577 -2.41328 4.30584 0.287821 2.43404
lowerback 19.07 2.22442 -0.369149
upperback 9.86528 2.8429 0.485959
thorax -0.0995157 1.39626 0.192779
lowerneck 5.86743 -5.27089 -5.39422
upperneck -11.071 -7.05788 5.71822
head -3.85635 -3.59498 2.9552
rclavicle -5.32743e-014 1.74931e-014
rhumerus 18.8606 -0.0747937 -72.4201
rradius 113.999
rwrist 21.2533
rhand 27.631 -7.29408
rfingers 7.12502
rthumb 51.5651 -27.6546
lclavicle -5.32743e-014 1.74931e-014
lhumerus 23.2592 -15.0324 67.1547
lradius 118.517
lwrist -9.73633
lhand 13.768 41.9786
lfingers 7.12502
lthumb 38.6908 67.5865
rfemur -37.6832 -1.96095 16.6112
rtibia 56.8695
rfoot -22.2092 -10.5921
rtoes -11.7747
lfemur -37.1431 0.990174 -21.1606
ltibia 54.9954
lfoot -21.2353 5.29133
ltoes -15.727
329
root 0.038266 16.6651 -2.41252 4.40616 0.279666 2.45813
lowerback 19.0301 2.21099 -0.420297
upperback 9.83354 2.81743 0.484036
thorax -0.1156 1.38173 0.224935
lowerneck 5.80731 -5.24848 -5.35501
upperneck -10.9302 -7.03676 5.58994
head -3.81161 -3.57911 2.90349
rclavicle 9.14409e-015 0
rhumerus 18.7745 0.156421 -72.3722
rradius 114.795
rwrist 21.1693
rhand 27.4462 -7.17067
rfingers 7.12502
rthumb 51.397 -27.6278
lclavicle 9.14409e-015 0
lhumerus 23.1586 -15.0208 67.1531
lradius 119.245
lwrist -9.64804
lhand 13.6737 41.9111
lfingers 7.12502
lthumb 38.6018 67.544
rfemur -37.7594 -1.95788 16.5779
rtibia 56.7465
rfoot -22.0828 -10.6102
rtoes -11.8513
lfemur -37.1934 0.983039 -21.1838
ltibia 54.8825
lfoot -21.2599 5.31371
ltoes -15.7091
